<svg width="32" height="32" viewBox="0 0 32 32" fill="none" xmlns="http://www.w3.org/2000/svg">
<path d="M16 32C14.528 32 13.1093 31.808 11.744 31.424C10.3787 31.0398 9.104 30.5013 7.92 29.808C6.736 29.1147 5.65867 28.2827 4.688 27.312C3.71733 26.3414 2.88533 25.264 2.192 24.08C1.49867 22.8959 0.96 21.6213 0.576 20.2559C0.192 18.8907 0 17.472 0 16C0 14.528 0.192 13.1093 0.576 11.744C0.96 10.3787 1.49867 9.104 2.192 7.92C2.88533 6.736 3.71733 5.65867 4.688 4.688C5.65867 3.71733 6.736 2.88533 7.92 2.192C9.104 1.49867 10.3787 0.96 11.744 0.576C13.1093 0.192 14.528 0 16 0C18.1973 0 20.272 0.421333 22.224 1.264C24.176 2.10667 25.872 3.248 27.312 4.688C28.752 6.128 29.8933 7.824 30.736 9.776C31.5787 11.728 32 13.8027 32 16C32 17.472 31.808 18.8907 31.424 20.256C31.0398 21.6212 30.5013 22.8958 29.808 24.08C29.1147 25.264 28.2827 26.3413 27.312 27.312C26.3414 28.2827 25.264 29.1148 24.08 29.808C22.8959 30.5013 21.6213 31.04 20.2559 31.424C18.8907 31.808 17.472 32 16 32ZM23.712 9.408H8.544C8.39467 9.408 8.26667 9.456 8.16 9.552C8.05333 9.648 8 9.78133 8 9.952V11.648C8 11.7333 8.032 11.776 8.096 11.776L16.064 16.32L16.1282 16.352C16.1707 16.352 16.2028 16.3413 16.2242 16.32L23.9362 11.776C23.9787 11.7547 24.0108 11.744 24.0322 11.744C24.0533 11.744 24.0855 11.7333 24.1282 11.712C24.2135 11.712 24.2562 11.6693 24.2562 11.584V9.952C24.2562 9.78133 24.2028 9.648 24.096 9.552C23.9892 9.456 23.8613 9.408 23.712 9.408ZM12.832 16.224C12.8533 16.2027 12.864 16.1706 12.864 16.128C12.864 16.0638 12.8427 16.032 12.8 16.032L8.224 13.4079C8.16 13.3866 8.10667 13.3866 8.064 13.4079C8.02133 13.4079 8 13.4399 8 13.5039V20.3839C8 20.4481 8.032 20.4906 8.096 20.5119H8.16C8.20267 20.5119 8.224 20.5013 8.224 20.4799L12.832 16.224ZM18.4 16.736C18.3787 16.6718 18.3252 16.6613 18.2398 16.704L16.4798 17.728C16.2665 17.856 16.0427 17.856 15.8078 17.728L14.2718 16.8642C14.2078 16.8215 14.1545 16.8215 14.1118 16.8642L8.25584 22.3042C8.23451 22.3253 8.22384 22.3682 8.22384 22.432C8.22384 22.4533 8.24518 22.4854 8.28784 22.528C8.41584 22.5707 8.50118 22.5922 8.54384 22.5922H23.5519C23.5946 22.5922 23.6374 22.5708 23.6799 22.528C23.6799 22.4427 23.6692 22.3895 23.6479 22.368L18.4 16.736ZM24.16 13.28H24.0322L19.6802 15.872C19.6376 15.872 19.6162 15.904 19.6162 15.968C19.5948 15.9893 19.6055 16.0213 19.648 16.0638L24 20.768C24.0427 20.8107 24.0747 20.8322 24.096 20.8322H24.16C24.2242 20.768 24.2562 20.7255 24.2562 20.7042V13.4081C24.256 13.3653 24.224 13.3227 24.16 13.28Z" fill="#010002" fill-opacity="0.6"/>
</svg>
